# xmcd CD database file generated by OrangeCD 5.2
#
# Track frame offsets:
#	150
#	13827
#	25697
#	36002
#	45687
#	55425
#	65927
#	77587
#	85905
#	105747
#
# Disc length: 1611 seconds
#
# Revision: 2
# Processed by: cddbd v1.5.1PL0 Copyright (c) Steve Scherf et al.
# Submitted via: OrangeCD 5.2
#
DISCID=7f06490a
DTITLE=Various Artist - Blockbuster Summer Series  '60s R&B
DYEAR=1997
DGENRE=R&B Compilation
TTITLE0=Ike and Tina Turner - It's Gonna Work Out Fine
TTITLE1=Inez Foxx - Mockingbird
TTITLE2=Little Anthony and The Imperials - Hurt So Bad
TTITLE3=The Chiffons - One Fine Day
TTITLE4=The Rivingtons - The Bird's The Word
TTITLE5=Gene McDaniels - Tower Of Strength
TTITLE6=Ernie K- Doe - Mother-In-Law
TTITLE7=Fats Domino - What A Party
TTITLE8=Lou Rawls - Your Good Thing (Is About To End)
TTITLE9=Bobby Womack - California Dreamin'
EXTD=
EXTT0=Ike and Tina Turner\n
EXTT1=Inez Foxx\n
EXTT2=Little Anthony and The Imperials\n
EXTT3=The Chiffons\n
EXTT4=The Rivingtons\n
EXTT5=Gene McDaniiels\n
EXTT6=Ernie K-Doe\n
EXTT7=Fats Domino\n
EXTT8=Lou Rawls\n
EXTT9=Bobbby Womack\n
PLAYORDER=
